# xmcd CD database file
#
# Track frame offsets:
#	150
#	35405
#	56412
#	86936
#	117203
#	150331
#	180448
#	198084
#	230982
#
# Disc length: 3578 seconds
#
# Revision: 0
# Processed by: cddbd v1.5.2PL0 Copyright (c) Steve Scherf et al.
# Submitted via: CDex 1.51
#
DISCID=6c0df809
DTITLE=Milt Jackson and The MJQ - The Savoy Recordings
DYEAR=1900
DGENRE=Jazz
TTITLE0=Lover
TTITLE1=Can't help lovin' that man
TTITLE2=In a sentimental mood and Mood Indigo and Azure
TTITLE3=Soul in
TTITLE4=The lady is a tramp
TTITLE5=Angel face
TTITLE6=What's new
TTITLE7=Sometimes I'm happy
TTITLE8=Now's the time
EXTD=
EXTT0=
EXTT1=
EXTT2=
EXTT3=
EXTT4=
EXTT5=
EXTT6=
EXTT7=
EXTT8=
PLAYORDER=
